<?xml version="1.0" standalone="no"?>
<!DOCTYPE svg PUBLIC "-//W3C//DTD SVG 20010904//EN"
 "http://www.w3.org/TR/2001/REC-SVG-20010904/DTD/svg10.dtd">
<svg version="1.0" xmlns="http://www.w3.org/2000/svg"
 width="200.000000pt" height="267.000000pt" viewBox="0 0 200.000000 267.000000"
 preserveAspectRatio="xMidYMid meet">

<g transform="translate(0.000000,267.000000) scale(0.100000,-0.100000)"
fill="#01b4e4" stroke="none">
<path d="M0 1335 l0 -1335 1000 0 1000 0 0 1335 0 1335 -1000 0 -1000 0 0
-1335z m1910 0 l0 -1245 -910 0 -910 0 0 1245 0 1245 910 0 910 0 0 -1245z"/>
<path d="M895 2344 c-306 -68 -485 -366 -400 -665 23 -80 66 -152 132 -220
105 -109 224 -159 378 -159 151 0 262 47 370 155 112 111 154 215 155 376 0
148 -47 260 -153 368 -126 127 -310 183 -482 145z m210 -119 c121 -32 212
-107 266 -219 60 -126 60 -239 0 -361 -125 -254 -459 -308 -658 -107 -162 164
-161 415 1 578 107 106 248 146 391 109z"/>
<path d="M817 2052 c-15 -16 -17 -47 -17 -219 0 -181 2 -201 18 -216 16 -15
47 -17 220 -17 l202 0 0 205 c0 176 -2 205 -15 205 -13 0 -15 -28 -15 -190 l0
-190 -185 0 c-157 0 -187 2 -191 15 -4 8 -1 22 6 30 10 12 43 15 176 15 l164
0 0 190 0 190 -173 0 c-156 0 -176 -2 -190 -18z"/>
<path d="M662 758 l3 -113 68 -3 c62 -3 67 -1 67 18 0 17 -6 20 -50 20 l-50 0
0 95 c0 89 -1 95 -20 95 -20 0 -21 -5 -18 -112z"/>
<path d="M830 850 c0 -24 25 -27 34 -4 9 23 8 24 -14 24 -13 0 -20 -7 -20 -20z"/>
<path d="M830 730 c0 -73 3 -90 15 -90 12 0 15 17 15 90 0 73 -3 90 -15 90
-12 0 -15 -17 -15 -90z"/>
<path d="M898 814 c-11 -10 57 -169 72 -169 15 0 83 159 72 169 -16 16 -31 1
-47 -49 -11 -30 -22 -55 -25 -55 -4 0 -14 25 -24 55 -15 49 -32 66 -48 49z"/>
<path d="M1080 730 c0 -73 3 -90 15 -90 12 0 15 13 15 58 0 60 11 82 42 82 11
0 18 7 18 19 0 17 -4 18 -30 11 -18 -5 -30 -5 -30 1 0 5 -7 9 -15 9 -12 0 -15
-17 -15 -90z"/>
<path d="M1212 797 c-32 -34 -30 -100 3 -132 73 -74 170 45 104 129 -27 34
-77 36 -107 3z m76 -19 c17 -17 15 -83 -3 -98 -20 -17 -52 -3 -59 26 -15 58
28 106 62 72z"/>
</g>
</svg>
